<svg width="16" height="15" viewBox="0 0 16 15" fill="none" xmlns="http://www.w3.org/2000/svg">
<path fill-rule="evenodd" clip-rule="evenodd" d="M12.6667 1.61438C12.5066 1.61438 12.3481 1.64591 12.2002 1.70717C12.0523 1.76843 11.9179 1.85822 11.8047 1.97141L2.92993 10.8462L2.28348 13.2165L4.65379 12.5701L13.5286 3.69526C13.6418 3.58207 13.7316 3.4477 13.7928 3.29981C13.8541 3.15192 13.8856 2.99341 13.8856 2.83333C13.8856 2.67326 13.8541 2.51475 13.7928 2.36686C13.7316 2.21897 13.6418 2.0846 13.5286 1.97141C13.4154 1.85822 13.281 1.76843 13.1331 1.70717C12.9853 1.64591 12.8267 1.61438 12.6667 1.61438ZM11.69 0.475331C11.9996 0.347066 12.3315 0.28105 12.6667 0.28105C13.0018 0.28105 13.3337 0.347066 13.6434 0.475331C13.953 0.603595 14.2344 0.791595 14.4714 1.0286C14.7084 1.2656 14.8964 1.54696 15.0247 1.85662C15.1529 2.16628 15.219 2.49817 15.219 2.83333C15.219 3.1685 15.1529 3.50039 15.0247 3.81005C14.8964 4.11971 14.7084 4.40107 14.4714 4.63807L5.47141 13.6381C5.38937 13.7201 5.28734 13.7793 5.17541 13.8098L1.50875 14.8098C1.27794 14.8728 1.0311 14.8072 0.861931 14.6381C0.692764 14.4689 0.627212 14.2221 0.69016 13.9913L1.69016 10.3246C1.72069 10.2127 1.77989 10.1106 1.86193 10.0286L10.8619 1.0286C11.0989 0.791595 11.3803 0.603595 11.69 0.475331Z" fill="#999999"/>
</svg>
